#!OML:ASF F:\VICON\USERDATA\INSTALL\rory3\rory3.ASF
:FULLY-SPECIFIED
:DEGREES
35
root -0.4593789294668822 18.444188317534675 6.742072142012631 -1.027827122429296 0.4096604598388116 -5.6664346892359045
lfemur -29.425936890635235 6.237401030916157 -14.077885455655753
ltibia 86.48824467212471
lfoot -0.7285130544643268 -6.086924239082732
ltoes -10.320883910441614
rfemur -9.339994473264209 4.818055370414157 33.192925080724706
rtibia 44.32517819906156
rfoot -10.203691815074377 -7.019182656157409
rtoes 12.608553235201642
lowerback 13.249305052659858 0.9705677712430154 3.858451673684975
upperback 0.04273309093604888 1.9558990481378733 2.6059609352060766
thorax -7.548606535565001 0.8792963200345874 -0.34290705459237625
lowerneck -18.23286957688737 -3.7995400723906068 -1.6597065294013513
upperneck 17.77050189328751 -5.139912826570475 1.9185328968951194
head 8.64956067564121 -2.339769409216759 0.30512156877890884
lclavicle -3.3311972128921738e-15 -6.504548657673314e-17
lhumerus -43.886638957272424 -9.018165234034416 92.77632655845724
lradius 68.68795791244062
lwrist 19.50223917021231
lhand -25.534057837698104 13.81783820695564
lfingers 7.125019999999999
lthumb 0.9957000709608732 43.78964697341903
rclavicle -3.3311972128921738e-15 -6.504548657673314e-17
rhumerus -38.74958577629516 -4.32490932513388 -89.41475613062526
rradius 63.49235652270631
rwrist -1.7361359753280736
rhand -16.56128787111124 30.010975251341613
rfingers 7.125019999999999
rthumb 9.65853392864436 0.35789948088350576
36
root -0.4672050631908441 18.36616032342118 7.690156556996573 -0.46551207811773465 -0.940012978574648 -6.112739332945597
lfemur -33.954165749640126 6.151852693695164 -14.133205090142393
ltibia 78.35934134018308
lfoot -4.215390640470889 -2.714841467364612
ltoes -10.030441597514596
rfemur -5.532334179353736 4.955131925375699 34.08401505040436
rtibia 42.29471325702831
rfoot -12.797808260704945 -7.0538561536134505
rtoes 10.648015085280669
lowerback 13.159588832440008 1.4914344753743238 4.924782476663736
upperback -0.07511875998994266 2.797914525478625 2.369679864426575
thorax -7.52020389426399 1.2397409180227819 -1.3688225093541642
lowerneck -18.40450590343393 -3.889054133053939 -1.5804264911546224
upperneck 17.605624439849915 -5.30173098994897 1.9253071489312146
head 8.62550437853415 -2.3975826994566676 0.27524755173020593
lclavicle -3.3416281193762668e-15 -7.241449484644872e-17
lhumerus -46.52841380876647 -8.347716480326042 92.68203484747984
lradius 68.60534751956538
lwrist 20.404505794477263
lhand -25.798006005160442 13.106700203911714
lfingers 7.125019999999999
lthumb 0.7407878693463632 43.082944015217876
rclavicle -3.3416281193762668e-15 -7.241449484644872e-17
rhumerus -36.20213071737537 -1.4193209152529138 -90.75566589754649
rradius 66.0585695752737
rwrist -3.5691011991555763
rhand -17.09181522852499 29.705455088907883
rfingers 7.125019999999999
rthumb 9.146632580959466 0.0686391721106776
37
root -0.43863235962967495 18.219277567914954 9.038051020440468 0.42738736117728277 -2.0698782353267964 -6.6628326106452
lfemur -35.88712253230089 4.454193951357641 -13.44693022280908
ltibia 64.19174220902279
lfoot -5.140325542179584 0.5940008876743597
ltoes -8.696658284739431
rfemur -1.6515859806536035 5.2468858409262005 34.987268413154496
rtibia 38.86045424651159
rfoot -14.340905025121236 -7.217217505729671
rtoes 8.808792054135052
lowerback 12.953452517676977 1.8819586517285347 6.0287131891929535
upperback -0.24467953641793383 3.4604538294383067 2.295476818612581
thorax -7.4489576256728585 1.5184658729276035 -2.1757459256071137
lowerneck -18.6729687347927 -3.906778983183151 -1.5476659208782795
upperneck 17.249641926613336 -5.335684591956328 1.955499626917331
head 8.547927886748974 -2.4021582586221553 0.2779562125775746
lclavicle -3.158456733410575e-15 5.588558836639056e-17
lhumerus -48.44631321796381 -7.478664527268555 92.47379116621572
lradius 68.30254547636936
lwrist 20.724211594774594
lhand -26.206895035030126 12.211199721249017
lfingers 7.125019999999999
lthumb 0.34589755263355404 42.1875448343765
rclavicle -3.158456733410575e-15 5.588558836639056e-17
rhumerus -33.808554350014184 1.3713008991104454 -91.60485602345176
rradius 68.695095546541
rwrist -5.1303474196858225
rhand -17.633835774356243 30.205200648662018
rfingers 7.125019999999999
rthumb 8.623558723654732 0.5535016089451088
38
root -0.38005026596355557 18.072183948977916 11.399252395073571 1.5415882506678762 -2.872539899987472 -7.039148278394986
lfemur -35.66132028175025 1.2405592933486052 -12.005667665422209
ltibia 47.75754554300021
lfoot -4.384686589542773 3.7338548345864617
ltoes -7.943847749518721
rfemur 3.4110544078242526 5.577705924544896 35.919877005475364
rtibia 35.604263531305975
rfoot -15.578932396248419 -7.145254469701095
rtoes 5.769001362834954
lowerback 12.583556417231152 2.32782718606951 7.071283872268214
upperback -0.39323429193191894 4.178283613279369 2.2979193819707637
thorax -7.292071275806438 1.82693794099871 -2.73979924960251
lowerneck -19.133359286522463 -3.8818460572041 -1.4717102615133786
upperneck 16.93189144565185 -5.285215640597306 2.0226922833496026
head 8.503909450357874 -2.374859905079372 0.2874575494152034
lclavicle -2.2393351849241225e-15 7.00186640591426e-16
lhumerus -49.88525203744571 -6.325991466283662 92.52809747546816
lradius 68.1803873306974
lwrist 20.630680525974565
lhand -26.32689445404519 11.947489067672201
lfingers 7.125019999999999
lthumb 0.23001459817617703 41.92189276748027
rclavicle -2.2393351849241225e-15 7.00186640591426e-16
rhumerus -31.143093581932725 3.7663625344872953 -92.07987536981976
rradius 71.17188938108761
rwrist -6.0601468620668815
rhand -17.957410351387026 31.073093421022442
rfingers 7.125019999999999
rthumb 8.311256774749477 1.4048766796303758
